<svg width="503" height="503" viewBox="0 0 503 503" fill="none" xmlns="http://www.w3.org/2000/svg">
<path d="M94.9567 185.327C86.4715 171.447 90.5959 153.333 104.254 144.494L225.844 65.8083C235.169 59.7736 247.065 59.3852 256.764 64.7987L387.101 137.547C401.46 145.561 406.691 163.642 398.829 178.086L278.452 399.218C267.411 419.502 238.552 420.226 226.507 400.522L94.9567 185.327Z" fill="url(#paint0_linear_9_29)"/>
<path d="M326.285 93.4951C305.952 96.8478 307.827 120.734 303.8 140.574C302.457 142.929 306.149 144.61 319.237 142.256C332.325 139.902 317.895 118.044 334.339 114.008C392.733 99.6787 371.926 190.008 387.699 264.326C389.793 274.194 409.848 294.591 433.675 283.158C457.503 271.724 457.167 264.326 427.635 270.715C398.102 277.105 404.814 247.512 398.438 172.521C392.062 97.5306 352.797 89.1235 326.285 93.4951Z" fill="url(#paint1_linear_9_29)"/>
<path d="M176.715 94.47C197.048 97.8226 195.173 121.709 199.2 141.549C200.543 143.903 196.851 145.585 183.763 143.231C170.675 140.877 185.105 119.019 168.661 114.983C110.267 100.654 131.074 190.983 115.301 265.301C113.207 275.169 93.1519 295.566 69.3245 284.132C45.4972 272.699 45.8328 265.301 75.3653 271.69C104.898 278.079 98.1858 248.487 104.562 173.496C110.938 98.5055 150.203 90.0983 176.715 94.47Z" fill="url(#paint2_linear_9_29)"/>
<path d="M349.392 81.5333C326.367 85.324 328.489 112.331 323.929 134.764C322.409 137.425 326.589 139.326 341.411 136.665C356.233 134.003 339.891 109.289 358.513 104.727C424.641 88.5247 401.078 190.656 418.94 274.684C421.312 285.841 444.023 308.903 471.007 295.976C497.99 283.048 497.61 274.684 464.166 281.908C430.722 289.132 438.323 255.673 431.102 170.884C423.881 86.096 379.416 76.5905 349.392 81.5333Z" fill="url(#paint3_linear_9_29)"/>
<path d="M153.608 82.508C176.633 86.2987 174.511 113.306 179.071 135.738C180.591 138.4 176.411 140.301 161.589 137.64C146.767 134.978 163.109 110.264 144.487 105.701C78.3589 89.4995 101.922 191.63 84.0596 275.658C81.688 286.815 58.9766 309.878 31.9934 296.951C5.0101 284.023 5.39014 275.658 38.8342 282.883C72.2782 290.107 64.6773 256.648 71.8982 171.859C79.119 87.0708 123.584 77.5652 153.608 82.508Z" fill="url(#paint4_linear_9_29)"/>
<path d="M322.993 77.634C300.91 81.4247 302.946 108.432 298.572 130.864C297.114 133.526 301.123 135.427 315.338 132.766C329.553 130.104 313.88 105.39 331.74 100.827C395.161 84.6255 372.563 186.756 389.694 270.784C391.969 281.941 413.75 305.004 439.629 292.077C465.508 279.149 465.143 270.784 433.068 278.008C400.993 285.233 408.283 251.774 401.358 166.985C394.432 82.1967 351.787 72.6912 322.993 77.634Z" fill="url(#paint5_linear_9_29)"/>
<path d="M180.007 78.6089C202.09 82.3996 200.054 109.406 204.428 131.839C205.886 134.501 201.877 136.402 187.662 133.74C173.447 131.079 189.12 106.365 171.26 101.802C107.839 85.6003 130.437 187.731 113.306 271.759C111.031 282.916 89.2497 305.979 63.371 293.051C37.4923 280.124 37.8568 271.759 69.9318 278.983C102.007 286.207 94.717 252.748 101.642 167.96C108.568 83.1716 151.213 73.666 180.007 78.6089Z" fill="url(#paint6_linear_9_29)"/>
<path d="M309.81 85.8997C285.034 89.9768 287.318 119.024 282.411 143.152C280.775 146.015 285.273 148.059 301.222 145.197C317.17 142.334 299.586 115.753 319.624 110.845C390.779 93.4194 365.425 203.267 384.645 293.644C387.197 305.644 411.635 330.449 440.67 316.545C469.704 302.64 469.295 293.644 433.309 301.414C397.322 309.184 405.501 273.196 397.731 182.002C389.961 90.8072 342.116 80.5834 309.81 85.8997Z" fill="url(#paint7_linear_9_29)"/>
<path d="M193.19 86.8746C217.966 90.9517 215.682 119.999 220.589 144.127C222.225 146.99 217.727 149.034 201.778 146.172C185.83 143.309 203.414 116.728 183.376 111.82C112.221 94.3942 137.575 204.242 118.355 294.619C115.803 306.618 91.3648 331.424 62.3302 317.519C33.2956 303.615 33.7046 294.619 69.6911 302.388C105.678 310.158 97.4989 274.171 105.269 182.977C113.039 91.782 160.884 81.5583 193.19 86.8746Z" fill="url(#paint8_linear_9_29)"/>
<path d="M331.57 72.9866C303.562 77.586 306.144 110.354 300.597 137.573C298.748 140.802 303.833 143.109 321.862 139.88C339.891 136.65 320.013 106.664 342.664 101.128C423.101 81.4696 394.44 205.388 416.166 307.342C419.051 320.88 446.677 348.862 479.499 333.177C512.32 317.492 511.858 307.342 471.178 316.108C430.497 324.873 439.743 284.276 430.959 181.399C422.176 78.5227 368.09 66.9893 331.57 72.9866Z" fill="url(#paint9_linear_9_29)"/>
<path d="M171.43 73.9615C199.438 78.5609 196.856 111.329 202.403 138.548C204.252 141.777 199.167 144.084 181.138 140.854C163.109 137.625 182.987 107.639 160.336 102.103C79.8993 82.4444 108.56 206.363 86.8335 308.317C83.9487 321.854 56.3232 349.837 23.5014 334.152C-9.32033 318.467 -8.85805 308.317 31.8224 317.083C72.5029 325.848 63.2573 285.251 72.0406 182.374C80.8239 79.4976 134.91 67.9642 171.43 73.9615Z" fill="url(#paint10_linear_9_29)"/>
<path d="M305.995 69.0875C279.064 73.6868 281.547 106.455 276.213 133.674C274.435 136.903 279.325 139.21 296.66 135.98C313.995 132.751 294.882 102.765 316.662 97.2287C394.005 77.5704 366.446 201.489 387.338 303.443C390.112 316.98 416.675 344.963 448.234 329.278C479.793 313.593 479.349 303.443 440.233 312.209C401.117 320.974 410.007 280.377 401.562 177.5C393.116 74.6236 341.11 63.0901 305.995 69.0875Z" fill="url(#paint11_linear_9_29)"/>
<path d="M197.005 70.0623C223.936 74.6617 221.453 107.43 226.787 134.649C228.565 137.878 223.675 140.185 206.34 136.955C189.005 133.726 208.118 103.74 186.338 98.2036C108.995 78.5453 136.554 202.464 115.662 304.418C112.888 317.955 86.3255 345.938 54.7661 330.253C23.2067 314.567 23.6512 304.418 62.7671 313.183C101.883 321.949 92.9929 281.352 101.438 178.475C109.884 75.5984 161.89 64.065 197.005 70.0623Z" fill="url(#paint12_linear_9_29)"/>
<path d="M300.434 87.8258C276.197 91.8187 278.431 120.266 273.631 143.895C272.03 146.699 276.431 148.701 292.033 145.898C307.635 143.094 290.433 117.062 310.035 112.256C379.643 95.1901 354.84 202.768 373.643 291.278C376.139 303.03 400.046 327.322 428.449 313.705C456.853 300.088 456.453 291.278 421.248 298.887C386.044 306.496 394.045 271.253 386.444 181.942C378.843 92.6319 332.038 82.6193 300.434 87.8258Z" fill="url(#paint13_linear_9_29)"/>
<path d="M202.566 88.8005C226.803 92.7934 224.569 121.241 229.369 144.87C230.97 147.673 226.569 149.676 210.967 146.872C195.365 144.069 212.567 118.037 192.965 113.231C123.357 96.1649 148.16 203.743 129.357 292.252C126.861 304.004 102.954 328.297 74.5508 314.68C46.1473 301.063 46.5474 292.252 81.7516 299.862C116.956 307.471 108.955 272.228 116.556 182.917C124.157 93.6066 170.962 83.5941 202.566 88.8005Z" fill="url(#paint14_linear_9_29)"/>
<path d="M321.068 74.9127C293.734 79.4279 296.254 111.596 290.84 138.316C289.036 141.486 293.999 143.751 311.594 140.581C329.189 137.41 309.789 107.973 331.896 102.539C410.399 83.2403 382.427 204.889 403.632 304.976C406.447 318.266 433.409 345.736 465.441 330.338C497.474 314.94 497.023 304.976 457.32 313.581C417.618 322.186 426.641 282.332 418.069 181.34C409.497 80.3474 356.711 69.0252 321.068 74.9127Z" fill="url(#paint15_linear_9_29)"/>
<path d="M181.932 75.8875C209.266 80.4026 206.746 112.571 212.16 139.291C213.964 142.461 209.001 144.725 191.406 141.555C173.811 138.385 193.211 108.948 171.104 103.513C92.6007 84.215 120.573 205.864 99.3682 305.951C96.5527 319.24 69.5913 346.71 37.5585 331.312C5.52579 315.914 5.97695 305.951 45.6795 314.556C85.3821 323.16 76.3588 283.307 84.9309 182.315C93.5031 81.3222 146.289 70 181.932 75.8875Z" fill="url(#paint16_linear_9_29)"/>
<path d="M295.644 71.0134C269.252 75.5286 271.685 107.697 266.458 134.417C264.716 137.587 269.507 139.851 286.496 136.681C303.485 133.511 284.754 104.074 306.099 98.6393C381.894 79.341 354.887 200.99 375.36 301.077C378.079 314.366 404.11 341.836 435.039 326.438C465.967 311.04 465.531 301.077 427.198 309.682C388.864 318.286 397.576 278.433 389.3 177.441C381.023 76.4481 330.057 65.126 295.644 71.0134Z" fill="url(#paint17_linear_9_29)"/>
<path d="M207.356 71.9883C233.748 76.5034 231.315 108.672 236.542 135.392C238.284 138.562 233.493 140.826 216.504 137.656C199.515 134.486 218.246 105.049 196.901 99.6141C121.106 80.3159 148.113 201.965 127.64 302.052C124.921 315.341 98.8897 342.811 67.9615 327.413C37.0333 312.015 37.4689 302.052 75.8024 310.657C114.136 319.261 105.424 279.408 113.7 178.415C121.977 77.423 172.943 66.1008 207.356 71.9883Z" fill="url(#paint18_linear_9_29)"/>
<path d="M280.633 78.9084C251.103 83.7677 253.826 118.388 247.977 147.145C246.027 150.557 251.389 152.994 270.397 149.582C289.406 146.17 268.448 114.489 292.331 108.64C377.139 87.8707 346.92 218.793 369.828 326.509C372.869 340.811 401.996 370.376 436.602 353.804C471.208 337.232 470.72 326.509 427.829 335.77C384.937 345.031 394.685 302.139 385.425 193.448C376.164 84.7573 319.138 72.5721 280.633 78.9084Z" fill="url(#paint19_linear_9_29)"/>
<path d="M222.367 79.8832C251.897 84.7425 249.174 119.363 255.023 148.12C256.973 151.532 251.611 153.969 232.603 150.557C213.594 147.145 234.552 115.464 210.669 109.615C125.861 88.8456 156.08 219.768 133.172 327.484C130.131 341.786 101.004 371.35 66.3981 354.779C31.7925 338.207 32.2799 327.484 75.1714 336.745C118.063 346.005 108.315 303.114 117.575 194.423C126.836 85.7322 183.862 73.5469 222.367 79.8832Z" fill="url(#paint20_linear_9_29)"/>
<path d="M297.778 65.4384C264.25 70.9307 267.341 110.061 260.7 142.563C258.487 146.42 264.574 149.174 286.157 145.318C307.739 141.462 283.943 105.654 311.06 99.043C407.351 75.5682 373.041 223.544 399.05 345.292C402.504 361.457 435.575 394.872 474.866 376.142C514.158 357.411 513.604 345.292 464.905 355.759C416.206 366.226 427.274 317.747 416.759 194.898C406.244 72.0493 341.497 58.2768 297.778 65.4384Z" fill="url(#paint21_linear_9_29)"/>
<path d="M205.222 66.4133C238.75 71.9056 235.659 111.036 242.3 143.538C244.513 147.395 238.426 150.149 216.843 146.293C195.261 142.437 219.057 106.629 191.94 100.018C95.6487 76.5431 129.959 224.519 103.95 346.267C100.496 362.432 67.4253 395.847 28.1339 377.117C-11.1575 358.386 -10.6041 346.267 38.0951 356.734C86.7943 367.201 75.7263 318.722 86.2409 195.873C96.7555 73.0241 161.503 59.2516 205.222 66.4133Z" fill="url(#paint22_linear_9_29)"/>
<path d="M273.027 61.5392C240.711 67.0315 243.69 106.162 237.289 138.664C235.156 142.521 241.023 145.275 261.826 141.419C282.628 137.563 259.692 101.755 285.829 95.1438C378.64 71.6691 345.569 219.645 370.639 341.393C373.968 357.558 405.843 390.973 443.714 372.243C481.586 353.512 481.052 341.393 434.113 351.86C387.174 362.327 397.842 313.848 387.708 190.999C377.573 68.1501 315.166 54.3776 273.027 61.5392Z" fill="url(#paint23_linear_9_29)"/>
<path d="M229.973 62.5141C262.289 68.0064 259.31 107.136 265.711 139.639C267.844 143.495 261.977 146.25 241.174 142.394C220.372 138.537 243.308 102.729 217.171 96.1187C124.36 72.6439 157.431 220.62 132.361 342.368C129.032 358.533 97.1568 391.948 59.2856 373.217C21.4144 354.487 21.9477 342.368 68.8867 352.835C115.826 363.301 105.158 314.823 115.292 191.974C125.427 69.125 187.834 55.3525 229.973 62.5141Z" fill="url(#paint24_linear_9_29)"/>
<circle cx="252" cy="309" r="42" fill="url(#paint25_linear_9_29)"/>
<path d="M253.86 286.628C264.86 278.128 275.36 285.628 290.36 298.128L293 300C294 302 295.504 312.488 292.5 321.5C289.167 331.5 283.36 338.128 277.36 342.628C274.527 341.461 269.16 336.628 258.36 330.628C244.86 323.128 243.86 330.628 232.86 338.128C221.86 345.628 202.86 327.128 193.86 318.628C184.86 310.128 175.36 314.628 159.86 330.628C144.36 346.628 108.36 314.128 96.8604 295.128C85.3604 276.128 111.36 283.628 124.86 298.128C138.36 312.628 160.86 309.128 166.86 301.628C172.86 294.128 193.86 286.628 218.86 305.628C243.86 324.628 242.86 295.128 253.86 286.628Z" fill="url(#paint26_linear_9_29)"/>
<ellipse cx="203.5" cy="204.5" rx="29.5" ry="35.5" fill="url(#paint27_linear_9_29)"/>
<ellipse cx="203" cy="205" rx="12" ry="18" fill="url(#paint28_linear_9_29)"/>
<ellipse cx="202.5" cy="205" rx="2.5" ry="16" fill="black"/>
<circle cx="194.5" cy="193.5" r="4.5" fill="white"/>
<ellipse cx="298.5" cy="204.5" rx="29.5" ry="35.5" fill="url(#paint29_linear_9_29)"/>
<ellipse cx="298" cy="205" rx="12" ry="18" fill="url(#paint30_linear_9_29)"/>
<ellipse cx="297.5" cy="205" rx="2.5" ry="16" fill="black"/>
<circle cx="289.5" cy="193.5" r="4.5" fill="white"/>
<defs>
<linearGradient id="paint0_linear_9_29" x1="80.2043" y1="159.465" x2="333.813" y2="297.52" gradientUnits="userSpaceOnUse">
<stop stop-color="#FCE47F"/>
<stop offset="1" stop-color="#F93B3B"/>
</linearGradient>
<linearGradient id="paint1_linear_9_29" x1="377.139" y1="92.5555" x2="273.716" y2="198.54" gradientUnits="userSpaceOnUse">
<stop stop-color="#F1C7BA"/>
<stop offset="1" stop-color="#FFB800"/>
</linearGradient>
<linearGradient id="paint2_linear_9_29" x1="125.861" y1="93.5304" x2="229.284" y2="199.515" gradientUnits="userSpaceOnUse">
<stop stop-color="#F1C7BA"/>
<stop offset="1" stop-color="#FFB800"/>
</linearGradient>
<linearGradient id="paint3_linear_9_29" x1="406.982" y1="80.4709" x2="290.051" y2="200.489" gradientUnits="userSpaceOnUse">
<stop stop-color="#F1C7BA"/>
<stop offset="1" stop-color="#FFB800"/>
</linearGradient>
<linearGradient id="paint4_linear_9_29" x1="96.0184" y1="81.4457" x2="212.949" y2="201.463" gradientUnits="userSpaceOnUse">
<stop stop-color="#F1C7BA"/>
<stop offset="1" stop-color="#FFB800"/>
</linearGradient>
<linearGradient id="paint5_linear_9_29" x1="378.225" y1="76.5717" x2="261.269" y2="191.701" gradientUnits="userSpaceOnUse">
<stop stop-color="#F1C7BA"/>
<stop offset="1" stop-color="#FFB800"/>
</linearGradient>
<linearGradient id="paint6_linear_9_29" x1="124.775" y1="77.5465" x2="241.731" y2="192.676" gradientUnits="userSpaceOnUse">
<stop stop-color="#F1C7BA"/>
<stop offset="1" stop-color="#FFB800"/>
</linearGradient>
<linearGradient id="paint7_linear_9_29" x1="371.777" y1="84.7571" x2="246.013" y2="213.897" gradientUnits="userSpaceOnUse">
<stop stop-color="#F1C7BA"/>
<stop offset="1" stop-color="#FFB800"/>
</linearGradient>
<linearGradient id="paint8_linear_9_29" x1="131.223" y1="85.7319" x2="256.987" y2="214.872" gradientUnits="userSpaceOnUse">
<stop stop-color="#F1C7BA"/>
<stop offset="1" stop-color="#FFB800"/>
</linearGradient>
<linearGradient id="paint9_linear_9_29" x1="401.62" y1="71.6976" x2="259.754" y2="217.674" gradientUnits="userSpaceOnUse">
<stop stop-color="#F1C7BA"/>
<stop offset="1" stop-color="#FFB800"/>
</linearGradient>
<linearGradient id="paint10_linear_9_29" x1="101.38" y1="72.6725" x2="243.246" y2="218.649" gradientUnits="userSpaceOnUse">
<stop stop-color="#F1C7BA"/>
<stop offset="1" stop-color="#FFB800"/>
</linearGradient>
<linearGradient id="paint11_linear_9_29" x1="373.351" y1="67.7985" x2="231.435" y2="208.21" gradientUnits="userSpaceOnUse">
<stop stop-color="#F1C7BA"/>
<stop offset="1" stop-color="#FFB800"/>
</linearGradient>
<linearGradient id="paint12_linear_9_29" x1="129.649" y1="68.7733" x2="271.565" y2="209.184" gradientUnits="userSpaceOnUse">
<stop stop-color="#F1C7BA"/>
<stop offset="1" stop-color="#FFB800"/>
</linearGradient>
<linearGradient id="paint13_linear_9_29" x1="361.054" y1="86.7068" x2="237.885" y2="213.043" gradientUnits="userSpaceOnUse">
<stop stop-color="#F1C7BA"/>
<stop offset="1" stop-color="#FFB800"/>
</linearGradient>
<linearGradient id="paint14_linear_9_29" x1="141.946" y1="87.6815" x2="265.115" y2="214.018" gradientUnits="userSpaceOnUse">
<stop stop-color="#F1C7BA"/>
<stop offset="1" stop-color="#FFB800"/>
</linearGradient>
<linearGradient id="paint15_linear_9_29" x1="389.435" y1="73.6473" x2="250.146" y2="216.136" gradientUnits="userSpaceOnUse">
<stop stop-color="#F1C7BA"/>
<stop offset="1" stop-color="#FFB800"/>
</linearGradient>
<linearGradient id="paint16_linear_9_29" x1="113.565" y1="74.6221" x2="252.854" y2="217.111" gradientUnits="userSpaceOnUse">
<stop stop-color="#F1C7BA"/>
<stop offset="1" stop-color="#FFB800"/>
</linearGradient>
<linearGradient id="paint17_linear_9_29" x1="361.653" y1="69.748" x2="222.339" y2="207.348" gradientUnits="userSpaceOnUse">
<stop stop-color="#F1C7BA"/>
<stop offset="1" stop-color="#FFB800"/>
</linearGradient>
<linearGradient id="paint18_linear_9_29" x1="141.347" y1="70.7229" x2="280.661" y2="208.323" gradientUnits="userSpaceOnUse">
<stop stop-color="#F1C7BA"/>
<stop offset="1" stop-color="#FFB800"/>
</linearGradient>
<linearGradient id="paint19_linear_9_29" x1="354.491" y1="77.5465" x2="204.598" y2="231.465" gradientUnits="userSpaceOnUse">
<stop stop-color="#F1C7BA"/>
<stop offset="1" stop-color="#FFB800"/>
</linearGradient>
<linearGradient id="paint20_linear_9_29" x1="148.509" y1="78.5214" x2="298.402" y2="232.44" gradientUnits="userSpaceOnUse">
<stop stop-color="#F1C7BA"/>
<stop offset="1" stop-color="#FFB800"/>
</linearGradient>
<linearGradient id="paint21_linear_9_29" x1="381.637" y1="63.8992" x2="212.241" y2="238.637" gradientUnits="userSpaceOnUse">
<stop stop-color="#F1C7BA"/>
<stop offset="1" stop-color="#FFB800"/>
</linearGradient>
<linearGradient id="paint22_linear_9_29" x1="121.363" y1="64.874" x2="290.759" y2="239.612" gradientUnits="userSpaceOnUse">
<stop stop-color="#F1C7BA"/>
<stop offset="1" stop-color="#FFB800"/>
</linearGradient>
<linearGradient id="paint23_linear_9_29" x1="353.855" y1="60" x2="184.38" y2="228.5" gradientUnits="userSpaceOnUse">
<stop stop-color="#F1C7BA"/>
<stop offset="1" stop-color="#FFB800"/>
</linearGradient>
<linearGradient id="paint24_linear_9_29" x1="149.145" y1="60.9748" x2="318.62" y2="229.475" gradientUnits="userSpaceOnUse">
<stop stop-color="#F1C7BA"/>
<stop offset="1" stop-color="#FFB800"/>
</linearGradient>
<linearGradient id="paint25_linear_9_29" x1="252" y1="267" x2="252" y2="351" gradientUnits="userSpaceOnUse">
<stop stop-color="white"/>
<stop offset="1" stop-color="#8E8484"/>
</linearGradient>
<linearGradient id="paint26_linear_9_29" x1="196.761" y1="283" x2="196.761" y2="341.628" gradientUnits="userSpaceOnUse">
<stop stop-color="#FB9090"/>
<stop offset="1" stop-color="#F90000"/>
</linearGradient>
<linearGradient id="paint27_linear_9_29" x1="203.5" y1="169" x2="204" y2="241" gradientUnits="userSpaceOnUse">
<stop stop-color="white"/>
<stop offset="1" stop-color="#EF6262"/>
</linearGradient>
<linearGradient id="paint28_linear_9_29" x1="203" y1="187" x2="203" y2="218.5" gradientUnits="userSpaceOnUse">
<stop stop-color="#FFF06D"/>
<stop offset="1" stop-color="#FF7A00"/>
</linearGradient>
<linearGradient id="paint29_linear_9_29" x1="298.5" y1="169" x2="299" y2="241" gradientUnits="userSpaceOnUse">
<stop stop-color="white"/>
<stop offset="1" stop-color="#EF6262"/>
</linearGradient>
<linearGradient id="paint30_linear_9_29" x1="298" y1="187" x2="298" y2="218.5" gradientUnits="userSpaceOnUse">
<stop stop-color="#FFF06D"/>
<stop offset="1" stop-color="#FF7A00"/>
</linearGradient>
</defs>
</svg>
