<svg width="503" height="503" viewBox="0 0 503 503" fill="none" xmlns="http://www.w3.org/2000/svg">
<path d="M439 205.203C439 241.611 347.85 425 252.625 425C157.401 425 64 255.545 64 205.203C64 110.127 153.349 78 248.574 78C343.798 78 439 110.127 439 205.203Z" fill="url(#paint0_linear_9_125)"/>
<path fill-rule="evenodd" clip-rule="evenodd" d="M270.867 164.586C262.105 168.701 252.321 171 242 171C232.835 171 224.093 169.187 216.114 165.899C182.572 153.187 168.078 163.91 159.269 185.884C153.008 202.879 136.669 215 117.5 215C92.9233 215 73 195.077 73 170.5C73 145.923 92.9233 126 117.5 126C120.875 126 124.163 126.376 127.323 127.088C150.627 131.734 167.569 125.433 175.207 90.18C181.202 58.7537 208.827 35 242 35C273.677 35 300.296 56.6604 307.852 85.9782C320.559 130.296 343.39 135.801 372.725 127.861C376.772 126.65 381.06 126 385.5 126C410.077 126 430 145.923 430 170.5C430 195.077 410.077 215 385.5 215C367.081 215 351.275 203.809 344.511 187.855C331.921 160.187 313.12 146.107 270.867 164.586Z" fill="url(#paint1_radial_9_125)"/>
<ellipse cx="203.5" cy="204.5" rx="29.5" ry="35.5" fill="url(#paint2_linear_9_125)"/>
<circle cx="194.5" cy="193.5" r="4.5" fill="white"/>
<ellipse cx="298.5" cy="204.5" rx="29.5" ry="35.5" fill="url(#paint3_linear_9_125)"/>
<circle cx="289.5" cy="193.5" r="4.5" fill="white"/>
<ellipse cx="257.5" cy="322.5" rx="42.5" ry="39.5" fill="url(#paint4_linear_9_125)"/>
<path d="M306.703 360.043C306.703 316.043 281.703 319.043 271.703 319.043C266.203 319.075 265.703 322.043 263.203 326.543C259.203 327.343 252.203 322.21 248.703 321.043C231.203 315.543 218.203 331.043 220.203 343.543C222.203 356.043 236.203 358.543 251.703 362.043C267.203 365.543 267.703 369.95 267.703 382.043C267.703 387 271.703 444.5 324.5 453C393.627 464.129 398.963 403.272 389.203 385.543C384.5 377 389.203 365.543 412.703 382.043C423.835 389.859 431.703 384.043 439.703 372.043C447.703 360.043 437.703 362.043 433.203 365.543C428.703 369.043 416.203 371.043 394.703 362.043C373.203 353.043 361.703 377.043 366.203 393.043C370.703 409.043 365.703 428.543 344.203 432.043C322.703 435.543 306.703 404.043 306.703 360.043Z" fill="url(#paint5_radial_9_125)"/>
<defs>
<linearGradient id="paint0_linear_9_125" x1="251.5" y1="78" x2="251.5" y2="425" gradientUnits="userSpaceOnUse">
<stop stop-color="#67F1B6"/>
<stop offset="1" stop-color="#1D5A3A"/>
</linearGradient>
<radialGradient id="paint1_radial_9_125" cx="0" cy="0" r="1" gradientUnits="userSpaceOnUse" gradientTransform="translate(240.5 35) rotate(91.0336) scale(194.032 309.717)">
<stop stop-color="#F8ED8F"/>
<stop offset="0.510417" stop-color="#F88F8F"/>
<stop offset="1" stop-color="#93727A"/>
</radialGradient>
<linearGradient id="paint2_linear_9_125" x1="203.5" y1="169" x2="204" y2="241" gradientUnits="userSpaceOnUse">
<stop/>
<stop offset="0.0001" stop-color="#474747"/>
<stop offset="1"/>
</linearGradient>
<linearGradient id="paint3_linear_9_125" x1="298.5" y1="169" x2="299" y2="241" gradientUnits="userSpaceOnUse">
<stop/>
<stop offset="0.0001" stop-color="#474747"/>
<stop offset="1"/>
</linearGradient>
<linearGradient id="paint4_linear_9_125" x1="257.5" y1="283" x2="257.5" y2="362" gradientUnits="userSpaceOnUse">
<stop stop-color="white"/>
<stop offset="1" stop-color="#766F6F"/>
</linearGradient>
<radialGradient id="paint5_radial_9_125" cx="0" cy="0" r="1" gradientUnits="userSpaceOnUse" gradientTransform="translate(352.5 293.5) rotate(82.6319) scale(233.932 368.597)">
<stop stop-color="#EFDBFF"/>
<stop offset="0.541667" stop-color="#FF50F8"/>
<stop offset="1" stop-color="#924AEF"/>
</radialGradient>
</defs>
</svg>
